<svg width="22" height="22" viewBox="0 0 22 22" fill="none" xmlns="http://www.w3.org/2000/svg">
<g clip-path="url(#clip0_0_179)">
<path d="M11 1.83333C7.45248 1.83333 4.58331 4.7025 4.58331 8.25C4.58331 13.0625 11 20.1667 11 20.1667C11 20.1667 17.4166 13.0625 17.4166 8.25C17.4166 4.7025 14.5475 1.83333 11 1.83333ZM6.41665 8.25C6.41665 5.72 8.46998 3.66666 11 3.66666C13.53 3.66666 15.5833 5.72 15.5833 8.25C15.5833 10.89 12.9433 14.8408 11 17.3067C9.09331 14.8592 6.41665 10.8625 6.41665 8.25Z" fill="white"/>
<path d="M11 10.5417C12.2656 10.5417 13.2916 9.51565 13.2916 8.24999C13.2916 6.98434 12.2656 5.95833 11 5.95833C9.73433 5.95833 8.70831 6.98434 8.70831 8.24999C8.70831 9.51565 9.73433 10.5417 11 10.5417Z" fill="white"/>
</g>
<defs>
<clipPath id="clip0_0_179">
<rect width="22" height="22" fill="white"/>
</clipPath>
</defs>
</svg>
