<svg width="16" height="16" viewBox="0 0 16 16" fill="none" xmlns="http://www.w3.org/2000/svg">
<path d="M6.3125 0.625C7.82092 0.625 9.26756 1.22422 10.3342 2.29083C11.4008 3.35744 12 4.80408 12 6.3125C12 7.72125 11.4837 9.01625 10.635 10.0138L10.8713 10.25H11.5625L15.9375 14.625L14.625 15.9375L10.25 11.5625V10.8713L10.0138 10.635C9.01625 11.4837 7.72125 12 6.3125 12C4.80408 12 3.35744 11.4008 2.29083 10.3342C1.22422 9.26756 0.625 7.82092 0.625 6.3125C0.625 4.80408 1.22422 3.35744 2.29083 2.29083C3.35744 1.22422 4.80408 0.625 6.3125 0.625ZM6.3125 2.375C4.125 2.375 2.375 4.125 2.375 6.3125C2.375 8.5 4.125 10.25 6.3125 10.25C8.5 10.25 10.25 8.5 10.25 6.3125C10.25 4.125 8.5 2.375 6.3125 2.375Z" fill="white"/>
</svg>
